<mxfile host="65bd71144e">
    <diagram id="_mRjsz0IrLIFd56cHApU" name="Page-1">
        <mxGraphModel dx="868" dy="612" grid="1" gridSize="10" guides="1" tooltips="1" connect="1" arrows="1" fold="1" page="1" pageScale="1" pageWidth="850" pageHeight="1100" background="none" math="0" shadow="0">
            <root>
                <mxCell id="0"/>
                <mxCell id="1" parent="0"/>
                <mxCell id="21" value="Allah&#39;s Will&#xa;Website" style="ellipse" vertex="1" parent="1">
                    <mxGeometry x="360" y="280" width="120" height="80" as="geometry"/>
                </mxCell>
                <mxCell id="44" style="edgeStyle=none;html=1;flowAnimation=0;shadow=0;jumpStyle=none;" edge="1" parent="1" source="22" target="43">
                    <mxGeometry relative="1" as="geometry"/>
                </mxCell>
                <mxCell id="22" value="Home" style="rounded=1;" vertex="1" parent="1">
                    <mxGeometry x="160" y="460" width="80" height="30" as="geometry"/>
                </mxCell>
                <mxCell id="23" value="" style="curved=1;noEdgeStyle=1;orthogonal=1;" edge="1" source="21" target="22" parent="1">
                    <mxGeometry relative="1" as="geometry">
                        <Array as="points">
                            <mxPoint x="392" y="372"/>
                            <mxPoint x="200" y="448"/>
                        </Array>
                    </mxGeometry>
                </mxCell>
                <mxCell id="24" value="About" style="rounded=1;" vertex="1" parent="1">
                    <mxGeometry x="270" y="460" width="80" height="30" as="geometry"/>
                </mxCell>
                <mxCell id="25" value="" style="curved=1;noEdgeStyle=1;orthogonal=1;" edge="1" source="21" target="24" parent="1">
                    <mxGeometry relative="1" as="geometry">
                        <Array as="points">
                            <mxPoint x="406" y="374"/>
                            <mxPoint x="310" y="448"/>
                        </Array>
                    </mxGeometry>
                </mxCell>
                <mxCell id="26" value="Services" style="rounded=1;" vertex="1" parent="1">
                    <mxGeometry x="380" y="460" width="80" height="30" as="geometry"/>
                </mxCell>
                <mxCell id="27" value="" style="curved=1;noEdgeStyle=1;orthogonal=1;" edge="1" source="21" target="26" parent="1">
                    <mxGeometry relative="1" as="geometry">
                        <Array as="points">
                            <mxPoint x="420" y="376"/>
                            <mxPoint x="420" y="448"/>
                        </Array>
                    </mxGeometry>
                </mxCell>
                <mxCell id="28" value="Portfolio" style="rounded=1;" vertex="1" parent="1">
                    <mxGeometry x="490" y="460" width="80" height="30" as="geometry"/>
                </mxCell>
                <mxCell id="29" value="" style="curved=1;noEdgeStyle=1;orthogonal=1;" edge="1" source="21" target="28" parent="1">
                    <mxGeometry relative="1" as="geometry">
                        <Array as="points">
                            <mxPoint x="434" y="374"/>
                            <mxPoint x="530" y="448"/>
                        </Array>
                    </mxGeometry>
                </mxCell>
                <mxCell id="30" value="Contact" style="rounded=1;" vertex="1" parent="1">
                    <mxGeometry x="600" y="460" width="80" height="30" as="geometry"/>
                </mxCell>
                <mxCell id="31" value="" style="curved=1;noEdgeStyle=1;orthogonal=1;" edge="1" source="21" target="30" parent="1">
                    <mxGeometry relative="1" as="geometry">
                        <Array as="points">
                            <mxPoint x="448" y="372"/>
                            <mxPoint x="640" y="448"/>
                        </Array>
                    </mxGeometry>
                </mxCell>
                <mxCell id="57" value="" style="edgeStyle=none;html=1;" edge="1" parent="1" source="43" target="56">
                    <mxGeometry relative="1" as="geometry"/>
                </mxCell>
                <mxCell id="43" value="About us" style="text;strokeColor=none;align=center;fillColor=none;html=1;verticalAlign=middle;whiteSpace=wrap;rounded=0;glass=0;shadow=0;" vertex="1" parent="1">
                    <mxGeometry x="170" y="520" width="60" height="30" as="geometry"/>
                </mxCell>
                <mxCell id="59" value="" style="edgeStyle=none;html=1;" edge="1" parent="1" source="56" target="58">
                    <mxGeometry relative="1" as="geometry"/>
                </mxCell>
                <mxCell id="56" value="Our Works" style="text;strokeColor=none;align=center;fillColor=none;html=1;verticalAlign=middle;whiteSpace=wrap;rounded=0;glass=0;shadow=0;" vertex="1" parent="1">
                    <mxGeometry x="170" y="580" width="60" height="30" as="geometry"/>
                </mxCell>
                <mxCell id="61" value="" style="edgeStyle=none;html=1;" edge="1" parent="1" source="58" target="60">
                    <mxGeometry relative="1" as="geometry"/>
                </mxCell>
                <mxCell id="58" value="Our location" style="text;strokeColor=none;align=center;fillColor=none;html=1;verticalAlign=middle;whiteSpace=wrap;rounded=0;glass=0;shadow=0;" vertex="1" parent="1">
                    <mxGeometry x="165" y="640" width="70" height="30" as="geometry"/>
                </mxCell>
                <mxCell id="60" value="Testimonials" style="text;strokeColor=none;align=center;fillColor=none;html=1;verticalAlign=middle;whiteSpace=wrap;rounded=0;glass=0;shadow=0;" vertex="1" parent="1">
                    <mxGeometry x="165" y="700" width="70" height="30" as="geometry"/>
                </mxCell>
            </root>
        </mxGraphModel>
    </diagram>
</mxfile>